<svg width="24" height="24" viewBox="0 0 24 24" fill="none" xmlns="http://www.w3.org/2000/svg">
<path fill-rule="evenodd" clip-rule="evenodd" d="M10.0956 3.00544C10.5201 2.36876 11.2346 1.98633 11.9998 1.98633C12.765 1.98633 13.4796 2.36876 13.9041 3.00544L14.5103 3.91477C14.8533 4.42923 15.4789 4.67766 16.0814 4.53863L16.8401 4.36355C17.6234 4.18279 18.4445 4.4183 19.013 4.98673C19.5814 5.55517 19.8169 6.37633 19.6361 7.15963L19.4611 7.91831C19.322 8.52079 19.5704 9.14641 20.0849 9.48939L20.9942 10.0956C21.6309 10.5201 22.0134 11.2346 22.0134 11.9998C22.0134 12.765 21.6309 13.4796 20.9942 13.9041L20.0849 14.5103C19.5704 14.8533 19.322 15.4789 19.4611 16.0814L19.6361 16.8401C19.8169 17.6234 19.5814 18.4445 19.0129 19.0129C18.4445 19.5814 17.6234 19.8169 16.8401 19.6361L16.0814 19.4611C15.4789 19.322 14.8533 19.5704 14.5103 20.0849L13.9041 20.9942C13.4796 21.6309 12.765 22.0134 11.9998 22.0134C11.2346 22.0134 10.5201 21.6309 10.0956 20.9942L9.48939 20.0849C9.14641 19.5704 8.52079 19.322 7.91831 19.4611L7.15963 19.6361C6.37633 19.8169 5.55517 19.5814 4.98673 19.013C4.4183 18.4445 4.18279 17.6233 4.36355 16.84L4.53863 16.0814C4.67767 15.4789 4.42923 14.8533 3.91477 14.5103L3.00544 13.9041C2.36876 13.4796 1.98633 12.765 1.98633 11.9998C1.98633 11.2346 2.36876 10.5201 3.00544 10.0956L3.91477 9.48939C4.42923 9.14641 4.67766 8.52079 4.53863 7.91831L4.36355 7.15963C4.18279 6.37633 4.4183 5.55517 4.98673 4.98673C5.55517 4.4183 6.37633 4.18279 7.15963 4.36355L7.91831 4.53863C8.52079 4.67767 9.14641 4.42923 9.48939 3.91477L10.0956 3.00544ZM8.74982 12C8.74982 10.2051 10.2049 8.75 11.9998 8.75C13.7947 8.75 15.2498 10.2051 15.2498 12C15.2498 13.7949 13.7947 15.25 11.9998 15.25C10.2049 15.25 8.74982 13.7949 8.74982 12Z" fill="black"/>
</svg>
